<svg width="53" height="53" viewBox="0 0 53 53" fill="none" xmlns="http://www.w3.org/2000/svg">
<path d="M26.3773 7.94922C16.1238 7.94922 7.78809 16.285 7.78809 26.5385C7.78809 36.792 16.1238 45.1277 26.3773 45.1277C36.6309 45.1277 44.9666 36.792 44.9666 26.5385C44.9666 16.285 36.6309 7.94922 26.3773 7.94922ZM26.3773 42.469C17.5948 42.469 10.4468 35.321 10.4468 26.5385C10.4468 17.756 17.5948 10.6079 26.3773 10.6079C35.1598 10.6079 42.3079 17.756 42.3079 26.5385C42.3079 35.321 35.1598 42.469 26.3773 42.469Z" fill="#9BA0AE"/>
<path d="M19.6215 31.1028C22.4546 36.3549 30.3109 36.3549 33.133 31.1028C33.8631 29.7517 31.8037 28.5422 31.0736 29.8934C29.0796 33.5981 23.6858 33.5981 21.6809 29.8934C20.9509 28.5422 18.8914 29.7408 19.6215 31.1028Z" fill="#9BA0AE"/>
<path d="M37.9935 19.3264L35.9885 18.8688C34.0054 18.422 31.946 18.4329 29.9737 18.9124L28.9713 19.1521C28.0777 19.37 27.1624 19.479 26.2472 19.479C25.3319 19.479 24.4166 19.37 23.5231 19.1521L22.5206 18.9124C20.5483 18.4329 18.4889 18.422 16.5058 18.8688L14.5008 19.3264C14.3919 19.3482 14.3047 19.4572 14.3047 19.5662V20.4379C14.3047 20.5577 14.381 20.6558 14.4899 20.6776C14.7841 20.743 15.0347 20.9827 15.1001 21.2878L15.6885 23.685C16.0917 25.3522 17.5845 26.529 19.3061 26.529H20.4721C22.7276 26.529 24.6563 24.9054 25.0485 22.6825L25.2338 21.5929C25.3209 21.1244 25.7023 20.7539 26.1818 20.7212C26.7157 20.6885 27.1733 21.059 27.2714 21.5711L27.4675 22.6825C27.8598 24.9054 29.7885 26.529 32.044 26.529H33.21C34.9207 26.529 36.4244 25.3522 36.8275 23.685L37.416 21.2878C37.4922 20.9827 37.732 20.743 38.0262 20.6776C38.1351 20.6558 38.2114 20.5468 38.2114 20.4379V19.5662C38.2114 19.4463 38.1351 19.3482 38.0153 19.3264H37.9935Z" fill="#9BA0AE"/>
<path d="M51.6028 25.3398C50.7202 25.3398 49.8376 25.3398 48.955 25.3398C47.4186 25.3398 47.4186 27.7262 48.955 27.7262C49.8376 27.7262 50.7202 27.7262 51.6028 27.7262C53.1392 27.7262 53.1392 25.3398 51.6028 25.3398Z" fill="#9BA0AE"/>
<path d="M3.80011 25.3398C2.9175 25.3398 2.0349 25.3398 1.15229 25.3398C-0.384098 25.3398 -0.384098 27.7262 1.15229 27.7262C2.0349 27.7262 2.9175 27.7262 3.80011 27.7262C5.3365 27.7262 5.3365 25.3398 3.80011 25.3398Z" fill="#9BA0AE"/>
<path d="M27.566 51.765C27.566 50.8824 27.566 49.9997 27.566 49.1171C27.566 47.5807 25.1797 47.5807 25.1797 49.1171C25.1797 49.9997 25.1797 50.8824 25.1797 51.765C25.1797 53.3014 27.566 53.3014 27.566 51.765Z" fill="#9BA0AE"/>
<path d="M27.566 3.95945C27.566 3.07685 27.566 2.19424 27.566 1.30073C27.566 -0.235661 25.1797 -0.235661 25.1797 1.30073C25.1797 2.18334 25.1797 3.06595 25.1797 3.95945C25.1797 5.49585 27.566 5.49585 27.566 3.95945Z" fill="#9BA0AE"/>
<path d="M9.37934 45.212C10.0004 44.5909 10.6324 43.9589 11.2535 43.3378C12.3432 42.2482 10.6542 40.5593 9.56457 41.6489C8.94348 42.27 8.3115 42.902 7.69041 43.5231C6.60077 44.6127 8.2897 46.3017 9.37934 45.212Z" fill="#9BA0AE"/>
<path d="M43.1801 11.423C43.8012 10.8019 44.4332 10.1699 45.0543 9.54878C46.144 8.45914 44.455 6.7702 43.3654 7.85984L41.4912 9.73402C40.4015 10.8237 42.0905 12.5126 43.1801 11.423Z" fill="#9BA0AE"/>
<path d="M7.69041 9.53706C8.3115 10.1582 8.94348 10.7901 9.56457 11.4112C10.6542 12.5009 12.3432 10.8119 11.2535 9.7223C10.6324 9.10121 10.0004 8.46921 9.37934 7.84812C8.2897 6.75848 6.60077 8.44742 7.69041 9.53706Z" fill="#9BA0AE"/>
<path d="M41.4912 43.3378C42.1123 43.9589 42.7443 44.5909 43.3654 45.212C44.455 46.3017 46.144 44.6127 45.0543 43.5231C44.4332 42.902 43.8012 42.27 43.1801 41.6489C42.0905 40.5593 40.4015 42.2482 41.4912 43.3378Z" fill="#9BA0AE"/>
</svg>
