<svg width="54" height="54" viewBox="0 0 54 54" fill="none" xmlns="http://www.w3.org/2000/svg">
<path d="M43.5074 16.271C43.5074 16.271 43.5074 16.2383 43.5074 16.2274C43.5074 7.42312 36.3703 0.296875 27.5769 0.296875C20.5923 0.296875 14.6755 4.79709 12.529 11.0407C5.77319 11.6618 0.477539 17.2844 0.477539 24.1927C0.477539 31.526 6.42697 37.4645 13.7494 37.4645H15.8742V39.3496C15.8742 40.886 18.2605 40.886 18.2605 39.3496V37.4645H21.7909V41.6705C21.7909 43.2069 24.1772 43.2069 24.1772 41.6705V37.4645H27.9256V38.4561C27.9256 39.9925 30.3119 39.9925 30.3119 38.4561V37.4645H34.4525V39.3496C34.4525 40.886 36.8388 40.886 36.8388 39.3496V37.4645H43.0607C48.9229 37.4645 53.6847 32.7137 53.6847 26.8405C53.6847 20.9674 49.1627 16.4998 43.5074 16.2601V16.271ZM43.0607 34.8167H36.8388V24.792H38.299C39.8353 24.792 39.8353 22.4057 38.299 22.4057H32.9924C31.456 22.4057 31.456 24.792 32.9924 24.792H34.4525V34.8167H18.2496V24.792H19.7097C21.2461 24.792 21.2461 22.4057 19.7097 22.4057H14.4031C12.8667 22.4057 12.8667 24.792 14.4031 24.792H15.8633V34.8167H13.7385C7.88709 34.8167 3.11447 30.0549 3.11447 24.1927C3.11447 18.7118 7.266 14.1898 12.7578 13.6777L14.4685 13.5142L15.0242 11.8907C16.8657 6.52962 21.9108 2.93381 27.566 2.93381C34.8884 2.93381 40.8378 8.89414 40.8378 16.2056V18.7554L43.3767 18.9079C47.659 19.0823 51.015 22.5691 51.015 26.8296C51.015 31.0901 47.441 34.7949 43.0498 34.7949L43.0607 34.8167Z" fill="#9BA0AE"/>
<path d="M22.5532 30.4366C22.0629 31.8967 24.3729 32.5287 24.8524 31.0686C25.31 29.7065 27.4021 29.7065 27.8598 31.0686C28.3392 32.5178 30.6493 31.8967 30.1589 30.4366C28.9494 26.7972 23.7519 26.7972 22.5424 30.4366H22.5532Z" fill="#9BA0AE"/>
<path d="M15.8638 44.2187V48.8606C15.8638 50.397 18.2501 50.397 18.2501 48.8606V44.2187C18.2501 42.6823 15.8638 42.6823 15.8638 44.2187Z" fill="#9BA0AE"/>
<path d="M34.4521 47.5429V52.1848C34.4521 53.7212 36.8385 53.7212 36.8385 52.1848V47.5429C36.8385 46.0065 34.4521 46.0065 34.4521 47.5429Z" fill="#9BA0AE"/>
<path d="M27.9263 44.2187V48.8606C27.9263 50.397 30.3126 50.397 30.3126 48.8606V44.2187C30.3126 42.6823 27.9263 42.6823 27.9263 44.2187Z" fill="#9BA0AE"/>
<path d="M21.79 50.1914V52.1854C21.79 53.7218 24.1764 53.7218 24.1764 52.1854V50.1914C24.1764 48.655 21.79 48.655 21.79 50.1914Z" fill="#9BA0AE"/>
</svg>
