<svg width="67" height="54" viewBox="0 0 67 54" fill="none" xmlns="http://www.w3.org/2000/svg">
<path d="M46.6449 24.6766C45.9912 27.7385 41.6435 27.7385 40.9788 24.6766C40.6519 23.1729 38.3528 23.8049 38.6797 25.3086C39.8238 30.6478 47.8 30.6478 48.955 25.3086C49.271 23.8049 46.9718 23.1729 46.6559 24.6766H46.6449Z" fill="#9BA0AE"/>
<path d="M65.0496 25.168C64.167 25.168 63.2844 25.168 62.4018 25.168C60.8654 25.168 60.8654 27.5543 62.4018 27.5543C63.2844 27.5543 64.167 27.5543 65.0496 27.5543C66.586 27.5543 66.586 25.168 65.0496 25.168Z" fill="#9BA0AE"/>
<path d="M41.0225 3.80012C41.0225 2.91751 41.0225 2.0349 41.0225 1.15229C41.0225 -0.384098 38.6362 -0.384098 38.6362 1.15229C38.6362 2.0349 38.6362 2.91751 38.6362 3.80012C38.6362 5.33651 41.0225 5.33651 41.0225 3.80012Z" fill="#9BA0AE"/>
<path d="M56.6269 11.255C57.248 10.6339 57.88 10.0019 58.5011 9.38081C59.5907 8.29117 57.9018 6.60223 56.8121 7.69187C56.1911 8.31296 55.5591 8.94496 54.938 9.56605C53.8483 10.6557 55.5373 12.3446 56.6269 11.255Z" fill="#9BA0AE"/>
<path d="M21.1479 9.38081C21.769 10.0019 22.401 10.6339 23.0221 11.255C24.1117 12.3446 25.8007 10.6557 24.7111 9.56605C24.09 8.94496 23.458 8.31296 22.8369 7.69187C21.7472 6.60223 20.0583 8.29117 21.1479 9.38081Z" fill="#9BA0AE"/>
<path d="M54.938 43.1699C55.5591 43.791 56.1911 44.423 56.8121 45.0441C57.9018 46.1337 59.5907 44.4448 58.5011 43.3551C57.88 42.734 57.248 42.102 56.6269 41.4809C55.5373 40.3913 53.8483 42.0802 54.938 43.1699Z" fill="#9BA0AE"/>
<path d="M58.4137 26.3666C58.4137 16.1131 50.0779 7.77734 39.8244 7.77734C31.554 7.77734 24.5367 13.2146 22.1286 20.6896C17.2361 21.7574 13.259 25.2988 11.6572 29.9733C5.5988 30.5399 0.826172 35.5741 0.826172 41.785C0.826172 48.3664 6.16541 53.7057 12.7468 53.7057H39.0834C44.3573 53.7057 48.6178 49.4343 48.6178 44.1713C48.6178 43.7028 48.5524 43.2451 48.487 42.7984C54.382 39.682 58.4137 33.482 58.4137 26.3666ZM39.0834 51.0579H12.7468C7.63643 51.0579 3.47399 46.8954 3.47399 41.785C3.47399 37.0015 7.0916 33.057 11.886 32.6211L13.5968 32.4577L14.1525 30.8341C15.776 26.1378 20.2 22.9778 25.1578 22.9778C31.5867 22.9778 36.8061 28.2081 36.8061 34.6261V37.1758L39.345 37.3175C43.0497 37.47 45.9482 40.4774 45.9482 44.1604C45.9482 47.8434 42.8645 51.047 39.0616 51.047L39.0834 51.0579ZM47.7134 40.1941C46.2533 37.056 43.1369 34.8331 39.4757 34.6806C39.4757 34.6697 39.4757 34.6588 39.4757 34.637C39.4757 26.7371 33.0686 20.33 25.1687 20.33C25.136 20.33 25.1143 20.33 25.0816 20.33C27.4679 14.5331 33.1667 10.4252 39.8244 10.4252C48.6069 10.4252 55.7549 17.5732 55.7549 26.3557C55.7549 32.2725 52.5078 37.4265 47.7134 40.1832V40.1941Z" fill="#9BA0AE"/>
<path d="M39.4109 17.0625C38.6808 17.0625 38.0815 17.6618 38.0815 18.3919V21.0506C38.0815 21.7806 38.6808 22.3799 39.4109 22.3799C40.141 22.3799 40.7403 21.7806 40.7403 21.0506V18.3919C40.7403 17.6618 40.141 17.0625 39.4109 17.0625Z" fill="#9BA0AE"/>
<path d="M48.2049 17.0625C47.4748 17.0625 46.8755 17.6618 46.8755 18.3919V21.0506C46.8755 21.7806 47.4748 22.3799 48.2049 22.3799C48.9349 22.3799 49.5342 21.7806 49.5342 21.0506V18.3919C49.5342 17.6618 48.9349 17.0625 48.2049 17.0625Z" fill="#9BA0AE"/>
<path d="M18.5882 33.4492C17.8581 33.4492 17.2588 34.0485 17.2588 34.7786V37.4373C17.2588 38.1674 17.8581 38.7667 18.5882 38.7667C19.3182 38.7667 19.9175 38.1674 19.9175 37.4373V34.7786C19.9175 34.0485 19.3182 33.4492 18.5882 33.4492Z" fill="#9BA0AE"/>
<path d="M31.3702 34.7786C31.3702 34.0444 30.775 33.4492 30.0408 33.4492C29.3066 33.4492 28.7114 34.0444 28.7114 34.7786V37.4264C28.7114 38.1606 29.3066 38.7558 30.0408 38.7558C30.775 38.7558 31.3702 38.1606 31.3702 37.4264V34.7786Z" fill="#9BA0AE"/>
<path d="M26.6068 43.8234C26.6068 44.8586 25.7677 45.6976 24.7326 45.6976C23.6974 45.6976 22.8584 44.8586 22.8584 43.8234C22.8584 42.7882 23.6974 41.9492 24.7326 41.9492C25.7677 41.9492 26.6068 42.7882 26.6068 43.8234Z" fill="#9BA0AE"/>
</svg>
