<svg width="54" height="53" viewBox="0 0 54 53" fill="none" xmlns="http://www.w3.org/2000/svg">
<path d="M43.2457 16.5601C43.2457 16.5601 43.2457 16.5274 43.2457 16.5165C43.2457 7.71219 36.1086 0.585938 27.3152 0.585938C20.3306 0.585938 14.4138 5.08615 12.2672 11.3298C5.51147 11.9509 0.21582 17.5734 0.21582 24.4817C0.21582 31.815 6.16525 37.7536 13.4876 37.7536H22.4445L19.1756 40.3251C18.2929 41.0225 17.9334 42.2102 18.3147 43.278C18.6852 44.3459 19.6877 45.0651 20.8209 45.0651H24.286L21.3548 48.5737C20.4722 49.6198 20.5376 51.167 21.4965 52.1368C22.0086 52.6598 22.6951 52.9323 23.3925 52.9323C23.9809 52.9323 24.5802 52.7361 25.0596 52.3438L37.1982 42.4935C38.0699 41.7852 38.4077 40.6084 38.0263 39.5406C37.6449 38.4836 36.6534 37.7754 35.5202 37.7754H32.0878V37.7536H42.7989C48.6612 37.7536 53.4229 33.0027 53.4229 27.1296C53.4229 21.2564 48.9009 16.7889 43.2457 16.5492V16.5601ZM35.5311 40.4341L23.3925 50.2844L29.9739 42.4172H20.8209L26.7377 37.7536H28.5465L26.1492 40.4232H35.5202L35.5311 40.4341ZM42.8098 35.1057H13.4876C7.63626 35.1057 2.86364 30.344 2.86364 24.4817C2.86364 19.0009 7.01517 14.4788 12.507 13.9667L14.2177 13.8033L14.7734 12.1797C16.6149 6.81868 21.6599 3.22286 27.3152 3.22286C34.6375 3.22286 40.587 9.1832 40.587 16.4947V19.0444L43.1258 19.197C47.4081 19.3713 50.7642 22.8582 50.7642 27.1187C50.7642 31.3792 47.1902 35.084 42.7989 35.084L42.8098 35.1057Z" fill="#000"/>
<path d="M23.992 30.4197C25.2124 27.9789 28.6666 27.9789 29.8979 30.4197C30.5843 31.7926 32.6437 30.5831 31.9573 29.2102C29.9632 25.2112 23.9266 25.2112 21.9326 29.2102C21.2461 30.5831 23.3055 31.7926 23.992 30.4197Z" fill="#000"/>
<path d="M37.231 18.4562L29.7451 22.1937C30.4425 23.5775 31.8373 24.5473 33.4826 24.5473C35.8144 24.5473 37.7104 22.6513 37.7104 20.3195C37.7104 19.633 37.5143 19.0228 37.231 18.4453V18.4562Z" fill="#000"/>
<path d="M16.4082 18.4562L23.894 22.1937C23.1966 23.5775 21.8019 24.5473 20.1565 24.5473C17.8247 24.5473 15.9287 22.6513 15.9287 20.3195C15.9287 19.633 16.1248 19.0228 16.4082 18.4453V18.4562Z" fill="#000"/>
</svg>
