<svg width="55" height="54" viewBox="0 0 55 54" fill="none" xmlns="http://www.w3.org/2000/svg">
<path d="M23.2387 45.5565C22.683 45.8725 22.1382 46.1885 21.5825 46.5154V44.5976C21.5825 43.0612 19.1961 43.0612 19.1961 44.5976V46.5154C18.6404 46.1994 18.0956 45.8834 17.5399 45.5565C16.2105 44.7829 15.001 46.8532 16.3304 47.6159C16.8861 47.9319 17.4418 48.2588 17.9975 48.5748C17.4418 48.8908 16.8861 49.2177 16.3413 49.5337C15.0119 50.3073 16.2105 52.3667 17.5508 51.5931C18.1065 51.2771 18.6513 50.9611 19.207 50.6342V52.552C19.207 54.0884 21.5933 54.0884 21.5933 52.552V50.6342C22.1382 50.9502 22.6939 51.2662 23.2387 51.5822C24.5681 52.3558 25.7776 50.2855 24.4482 49.5228C23.8925 49.2068 23.3368 48.8799 22.781 48.5639C23.3368 48.2479 23.8925 47.921 24.4482 47.605C25.7776 46.8314 24.579 44.7719 23.2387 45.5456V45.5565Z" fill="#9BA0AE"/>
<path d="M37.8173 33.2323C37.2616 33.5483 36.7168 33.8643 36.161 34.1911V32.2734C36.161 30.737 33.7747 30.737 33.7747 32.2734V34.1911C33.219 33.8752 32.6742 33.5592 32.1185 33.2323C30.7891 32.4586 29.5796 34.5289 30.909 35.2917C31.4647 35.6077 32.0204 35.9346 32.5762 36.2506C32.0204 36.5666 31.4647 36.8935 30.9199 37.2095C29.5905 37.9831 30.7891 40.0425 32.1294 39.2689C32.6851 38.9529 33.2299 38.6369 33.7856 38.31V40.2278C33.7856 41.7642 36.172 41.7642 36.172 40.2278V38.31C36.7168 38.626 37.2725 38.942 37.8173 39.258C39.1467 40.0316 40.3562 37.9613 39.0268 37.1986C38.4711 36.8826 37.9154 36.5557 37.3597 36.2397C37.9154 35.9237 38.4711 35.5968 39.0268 35.2808C40.3562 34.5071 39.1576 32.4477 37.8173 33.2214V33.2323Z" fill="#9BA0AE"/>
<path d="M17.8672 19.0859V21.7446C17.8672 23.281 20.2535 23.281 20.2535 21.7446V19.0859C20.2535 17.5495 17.8672 17.5495 17.8672 19.0859Z" fill="#9BA0AE"/>
<path d="M37.2403 21.7446V19.0859C37.2403 17.5495 34.854 17.5495 34.854 19.0859V21.7446C34.854 23.281 37.2403 23.281 37.2403 21.7446Z" fill="#9BA0AE"/>
<path d="M27.5538 25.4062H23.5112C23.5112 27.6291 25.32 29.4379 27.5429 29.4379C29.7657 29.4379 31.5746 27.6291 31.5746 25.4062H27.5538Z" fill="#9BA0AE"/>
<path d="M43.985 16.5601C43.985 16.5601 43.985 16.5274 43.985 16.5165C43.985 7.71219 36.8478 0.585938 28.0544 0.585938C21.0698 0.585938 15.1531 5.08615 13.0065 11.3298C6.25073 11.9509 0.955078 17.5734 0.955078 24.4817C0.955078 31.815 6.90454 37.7536 14.2269 37.7536H27.2481C28.8826 37.6991 28.8826 35.1493 27.2481 35.1058H14.2269C8.37555 35.1058 3.60293 30.344 3.60293 24.4817C3.60293 19.0009 7.75443 14.4788 13.2462 13.9667L14.957 13.8033L15.5127 12.1797C17.3542 6.81868 22.3992 3.22286 28.0544 3.22286C35.3768 3.22286 41.3263 9.1832 41.3263 16.4947V19.0444L43.8651 19.197C48.1474 19.3713 51.5035 22.8582 51.5035 27.1187C51.5035 31.3792 47.9295 35.084 43.5382 35.084H42.6883C41.1083 35.182 41.1083 37.6337 42.6883 37.7209L43.5382 37.7318C49.4005 37.7318 54.1622 32.9809 54.1622 27.1078C54.1622 21.2346 49.6402 16.7671 43.985 16.5274V16.5601Z" fill="#9BA0AE"/>
</svg>
