<svg width="129" height="129" viewBox="0 0 129 129" fill="none" xmlns="http://www.w3.org/2000/svg">
<g clip-path="url(#clip0_315_143)">
<path d="M129 0H0V129H129V0Z" fill="black"/>
<path d="M68.1181 32.7561C66.7222 30.0123 62.8321 30.0123 61.4363 32.7561L42.4969 75.9434C48.0752 73.6027 56.4426 73.7388 56.4426 73.7388H57.0044L63.2125 58.2865C63.9104 56.6437 65.4171 56.6437 66.115 58.2865L74.2783 78.6644H58.2868C58.2868 78.6644 46.3115 78.2462 40.7434 83.2525C38.5942 85.185 37.1707 87.372 36.2309 89.4783C34.3765 93.6279 37.4906 98.3017 42.0359 98.3017C44.5378 98.3017 46.7877 96.8278 47.7854 94.5325C48.763 92.285 51.0432 89.8663 56.3267 89.8663H78.7757L80.4965 94.1419C81.5094 96.6564 83.9458 98.3017 86.6568 98.3017C91.4464 98.3017 94.6613 93.3836 92.7414 88.997L68.1155 32.7561H68.1181Z" fill="white"/>
</g>
<defs>
<clipPath id="clip0_315_143">
<rect width="129" height="129" fill="white"/>
</clipPath>
</defs>
</svg>
