<svg width="32" height="31" viewBox="0 0 32 31" fill="none" xmlns="http://www.w3.org/2000/svg">
<path d="M16.2552 1.38691C23.9865 1.38691 30.2768 7.67931 30.2768 15.4134C30.2768 23.1474 23.9865 29.4398 16.2552 29.4398C8.52381 29.4398 2.23359 23.1474 2.23359 15.4134C2.23359 7.67931 8.52381 1.38691 16.2552 1.38691ZM16.2552 0C7.74509 0 0.847168 6.90146 0.847168 15.4134C0.847168 23.9253 7.74623 30.8267 16.2552 30.8267C24.7641 30.8267 31.6632 23.9253 31.6632 15.4134C31.6632 6.90146 24.7653 0 16.2552 0Z" fill="#000000"/>
<path d="M11.6331 13.8699C12.4838 13.8699 13.1735 12.8348 13.1735 11.558C13.1735 10.2812 12.4838 9.24609 11.6331 9.24609C10.7824 9.24609 10.0928 10.2812 10.0928 11.558C10.0928 12.8348 10.7824 13.8699 11.6331 13.8699Z" fill="#000000"/>
<path d="M20.8773 13.8699C21.728 13.8699 22.4176 12.8348 22.4176 11.558C22.4176 10.2812 21.728 9.24609 20.8773 9.24609C20.0265 9.24609 19.3369 10.2812 19.3369 11.558C19.3369 12.8348 20.0265 13.8699 20.8773 13.8699Z" fill="#000000"/>
<path d="M16.2551 23.6851C13.6236 23.6851 11.1495 22.4464 9.63652 20.3706C9.45295 20.1197 9.50882 19.7673 9.75966 19.5848C10.0105 19.4023 10.3628 19.4571 10.5452 19.708C11.8461 21.4929 13.9805 22.5593 16.254 22.5593C18.5274 22.5593 20.6618 21.4929 21.9627 19.708C22.1463 19.4571 22.4974 19.4012 22.7483 19.5848C22.9991 19.7684 23.055 20.1197 22.8714 20.3706C21.3596 22.4453 18.8854 23.6851 16.2528 23.6851H16.2551Z" fill="#000000"/>
</svg>
