<svg width="31" height="31" viewBox="0 0 31 31" fill="none" xmlns="http://www.w3.org/2000/svg">
<path d="M15.4393 1.38691C23.1706 1.38691 29.4608 7.67931 29.4608 15.4134C29.4608 23.1474 23.1706 29.4398 15.4393 29.4398C7.70789 29.4398 1.41767 23.1474 1.41767 15.4134C1.41767 7.67931 7.70789 1.38691 15.4393 1.38691ZM15.4393 0C6.92917 0 0.03125 6.90146 0.03125 15.4134C0.03125 23.9253 6.93031 30.8267 15.4393 30.8267C23.9482 30.8267 30.8473 23.9253 30.8473 15.4134C30.8473 6.90146 23.9482 0 15.4393 0Z" fill="#000000"/>
<path d="M10.8172 13.8699C11.6679 13.8699 12.3575 12.8348 12.3575 11.558C12.3575 10.2812 11.6679 9.24609 10.8172 9.24609C9.96649 9.24609 9.27686 10.2812 9.27686 11.558C9.27686 12.8348 9.96649 13.8699 10.8172 13.8699Z" fill="#000000"/>
<path d="M20.0613 13.8699C20.912 13.8699 21.6017 12.8348 21.6017 11.558C21.6017 10.2812 20.912 9.24609 20.0613 9.24609C19.2106 9.24609 18.521 10.2812 18.521 11.558C18.521 12.8348 19.2106 13.8699 20.0613 13.8699Z" fill="#000000"/>
<path d="M15.4393 26.624C10.1091 26.624 5.77197 22.2853 5.77197 16.9533V16.5312H25.1067V16.9533C25.1067 22.2853 20.7695 26.624 15.4393 26.624ZM6.62595 17.3764C6.84714 22.0481 10.7157 25.78 15.4393 25.78C20.163 25.78 24.0315 22.0481 24.2527 17.3764H6.62595Z" fill="#000000"/>
</svg>
