<svg width="32" height="31" viewBox="0 0 32 31" fill="none" xmlns="http://www.w3.org/2000/svg">
<path d="M20.1891 25.2254C17.9214 25.2254 15.7756 24.605 14.4496 23.5648C14.2045 23.3732 14.1623 23.0196 14.3538 22.7744C14.5454 22.5292 14.8988 22.487 15.1439 22.6786C16.2795 23.5682 18.1653 24.0997 20.1903 24.0997C22.2152 24.0997 24.101 23.5682 25.2366 22.6786C25.4806 22.487 25.8351 22.5303 26.0267 22.7744C26.2182 23.0185 26.1761 23.3732 25.9309 23.5648C24.6038 24.605 22.458 25.2254 20.1914 25.2254H20.1891Z" fill="#979797"/>
<path d="M16.3362 1.38691C24.0676 1.38691 30.3578 7.67931 30.3578 15.4134C30.3578 23.1474 24.0676 29.4398 16.3362 29.4398C8.60485 29.4398 2.31464 23.1474 2.31464 15.4134C2.31464 7.67931 8.60485 1.38691 16.3362 1.38691ZM16.3362 0C7.82613 0 0.928223 6.90146 0.928223 15.4134C0.928223 23.9253 7.82727 30.8267 16.3362 30.8267C24.8452 30.8267 31.7442 23.9253 31.7442 15.4134C31.7442 6.90146 24.8463 0 16.3362 0Z" fill="#979797"/>
<path d="M19.3678 17.3059C19.5632 16.4776 19.0504 15.6477 18.2224 15.4523C17.3945 15.2568 16.5649 15.7697 16.3695 16.598C16.174 17.4262 16.6868 18.2561 17.5148 18.4516C18.3427 18.6471 19.1724 18.1341 19.3678 17.3059Z" fill="#979797"/>
<path d="M27.0719 17.3059C27.2673 16.4776 26.7545 15.6477 25.9265 15.4523C25.0986 15.2568 24.269 15.7697 24.0736 16.598C23.8781 17.4262 24.3909 18.2561 25.2189 18.4516C26.0468 18.6471 26.8765 18.1341 27.0719 17.3059Z" fill="#979797"/>
<path d="M9.73264 0.414062C8.67914 0.414062 7.73623 0.879406 7.0909 1.61278C6.44557 0.879406 5.50266 0.414062 4.44916 0.414062C2.50406 0.414062 0.927246 1.99144 0.927246 3.93722C0.927246 7.46037 7.0909 12.0842 7.0909 12.0842C7.0909 12.0842 13.2546 7.46037 13.2546 3.93722C13.2546 1.99144 11.6777 0.414062 9.73264 0.414062Z" fill="#979797"/>
</svg>
