<svg width="41" height="31" viewBox="0 0 41 31" fill="none" xmlns="http://www.w3.org/2000/svg">
<path d="M25.4705 1.38691C33.2019 1.38691 39.4921 7.67931 39.4921 15.4134C39.4921 23.1474 33.2019 29.4398 25.4705 29.4398C17.7392 29.4398 11.4489 23.1474 11.4489 15.4134C11.4489 7.67931 17.7392 1.38691 25.4705 1.38691ZM25.4705 0C16.9604 0 10.0625 6.90146 10.0625 15.4134C10.0625 23.9253 16.9616 30.8267 25.4705 30.8267C33.9795 30.8267 40.8785 23.9253 40.8785 15.4134C40.8785 6.90146 33.9806 0 25.4705 0Z" fill="#979797"/>
<path d="M25.4705 26.2049C27.1726 26.2049 28.5523 24.8246 28.5523 23.122C28.5523 21.4193 27.1726 20.0391 25.4705 20.0391C23.7685 20.0391 22.3887 21.4193 22.3887 23.122C22.3887 24.8246 23.7685 26.2049 25.4705 26.2049Z" fill="#979797"/>
<path d="M22.3886 14.5666H17.7665C17.3834 14.5666 17.0732 14.2564 17.0732 13.8731C17.0732 13.4899 17.3834 13.1797 17.7665 13.1797H22.3886C22.7717 13.1797 23.0819 13.4899 23.0819 13.8731C23.0819 14.2564 22.7717 14.5666 22.3886 14.5666Z" fill="#979797"/>
<path d="M33.1747 14.5666H28.5526C28.1695 14.5666 27.8594 14.2564 27.8594 13.8731C27.8594 13.4899 28.1695 13.1797 28.5526 13.1797H33.1747C33.5578 13.1797 33.868 13.4899 33.868 13.8731C33.868 14.2564 33.5578 14.5666 33.1747 14.5666Z" fill="#979797"/>
<path d="M8.5212 16.1083H3.89905C3.61857 16.1083 3.36544 15.9395 3.25827 15.6806C3.15109 15.4217 3.21039 15.1229 3.40878 14.9245L6.84746 11.4846H3.89905C3.51596 11.4846 3.20582 11.1743 3.20582 10.7911C3.20582 10.4079 3.51596 10.0977 3.89905 10.0977H8.5212C8.80168 10.0977 9.0548 10.2665 9.16198 10.5254C9.26915 10.7843 9.20986 11.0831 9.01147 11.2815L5.57278 14.7214H8.5212C8.90429 14.7214 9.21442 15.0317 9.21442 15.4149C9.21442 15.7981 8.90429 16.1083 8.5212 16.1083Z" fill="#979797"/>
<path d="M6.98065 8.40037H0.817015C0.536538 8.40037 0.283411 8.23156 0.176236 7.97266C0.069062 7.71376 0.128358 7.41493 0.326744 7.21648L5.30692 2.23456H0.817015C0.433924 2.23456 0.123794 1.92433 0.123794 1.54111C0.123794 1.15789 0.433924 0.847656 0.817015 0.847656H6.98065C7.26113 0.847656 7.51426 1.01646 7.62143 1.27536C7.72861 1.53427 7.66931 1.83309 7.47093 2.03155L2.49075 7.01346H6.98065C7.36375 7.01346 7.67388 7.32369 7.67388 7.70691C7.67388 8.09014 7.36375 8.40037 6.98065 8.40037Z" fill="#979797"/>
</svg>
