<svg width="32" height="31" viewBox="0 0 32 31" fill="none" xmlns="http://www.w3.org/2000/svg">
<path d="M15.7034 1.38691C23.4348 1.38691 29.725 7.67931 29.725 15.4134C29.725 23.1474 23.4348 29.4398 15.7034 29.4398C7.97207 29.4398 1.68185 23.1474 1.68185 15.4134C1.68185 7.67931 7.97207 1.38691 15.7034 1.38691ZM15.7034 0C7.19334 0 0.29541 6.90146 0.29541 15.4134C0.29541 23.9253 7.19448 30.8267 15.7034 30.8267C24.2124 30.8267 31.1114 23.9253 31.1114 15.4134C31.1114 6.90146 24.2124 0 15.7034 0Z" fill="#000000"/>
<path d="M11.0814 13.8699C11.9321 13.8699 12.6217 12.8348 12.6217 11.558C12.6217 10.2812 11.9321 9.24609 11.0814 9.24609C10.2307 9.24609 9.54102 10.2812 9.54102 11.558C9.54102 12.8348 10.2307 13.8699 11.0814 13.8699Z" fill="#000000"/>
<path d="M20.3255 13.8699C21.1762 13.8699 21.8658 12.8348 21.8658 11.558C21.8658 10.2812 21.1762 9.24609 20.3255 9.24609C19.4748 9.24609 18.7852 10.2812 18.7852 11.558C18.7852 12.8348 19.4748 13.8699 20.3255 13.8699Z" fill="#000000"/>
<path d="M21.8668 23.6852C21.6935 23.6852 21.5225 23.6054 21.4119 23.4537C20.111 21.6687 17.9766 20.6023 15.7032 20.6023C13.4297 20.6023 11.2953 21.6687 9.99443 23.4537C9.81201 23.7046 9.45971 23.7605 9.20888 23.5768C8.95805 23.3932 8.90217 23.0419 9.08573 22.791C10.5976 20.7163 13.0717 19.4766 15.7032 19.4766C18.3347 19.4766 20.8088 20.7152 22.3206 22.791C22.5042 23.0419 22.4483 23.3943 22.1975 23.5768C22.0971 23.6498 21.9808 23.6852 21.8668 23.6852Z" fill="#000000"/>
<path d="M21.3038 20.0376C20.1442 20.0376 19.2002 19.0932 19.2002 17.9333C19.2002 16.9022 20.8295 13.6984 21.0153 13.3369L21.3038 12.7734L21.5922 13.3369C21.7781 13.6984 23.4073 16.9022 23.4073 17.9333C23.4073 19.0932 22.4633 20.0376 21.3038 20.0376ZM21.3038 14.2105C20.6516 15.5415 19.8501 17.3641 19.8501 17.9344C19.8501 18.7362 20.5022 19.3886 21.3038 19.3886C22.1053 19.3886 22.7575 18.7362 22.7575 17.9344C22.7575 17.3641 21.9559 15.5415 21.3038 14.2105Z" fill="#000000"/>
</svg>
