<svg width="31" height="31" viewBox="0 0 31 31" fill="none" xmlns="http://www.w3.org/2000/svg">
<path d="M15.5193 1.38691C23.2507 1.38691 29.5409 7.67931 29.5409 15.4134C29.5409 23.1474 23.2507 29.4398 15.5193 29.4398C7.78797 29.4398 1.49776 23.1474 1.49776 15.4134C1.49776 7.67931 7.78797 1.38691 15.5193 1.38691ZM15.5193 0C7.00925 0 0.111328 6.90146 0.111328 15.4134C0.111328 23.9253 7.01039 30.8267 15.5193 30.8267C24.0283 30.8267 30.9274 23.9253 30.9274 15.4134C30.9274 6.90146 24.0294 0 15.5193 0Z" fill="#000000"/>
<path d="M12.2174 8.03516C11.6907 8.03516 11.2198 8.26783 10.8971 8.63394C10.5744 8.26783 10.1036 8.03516 9.57681 8.03516C8.60426 8.03516 7.81641 8.82328 7.81641 9.79616C7.81641 11.5583 10.8982 13.8702 10.8982 13.8702C10.8982 13.8702 13.9801 11.5583 13.9801 9.79616C13.9801 8.82328 13.1922 8.03516 12.2197 8.03516H12.2174Z" fill="#000000"/>
<path d="M21.4627 8.03516C20.9359 8.03516 20.465 8.26783 20.1424 8.63394C19.8197 8.26783 19.3488 8.03516 18.8221 8.03516C17.8495 8.03516 17.0605 8.82328 17.0605 9.79616C17.0605 11.5583 20.1424 13.8702 20.1424 13.8702C20.1424 13.8702 23.2242 11.5583 23.2242 9.79616C23.2242 8.82328 22.4364 8.03516 21.4627 8.03516Z" fill="#000000"/>
<path d="M15.5194 26.6279C10.1892 26.6279 5.85205 22.2892 5.85205 16.9572V16.5352H25.1868V16.9572C25.1868 22.2892 20.8496 26.6279 15.5194 26.6279ZM6.70602 17.3792C6.92721 22.0508 10.7958 25.7827 15.5194 25.7827C20.2431 25.7827 24.1116 22.0508 24.3328 17.3792H6.70602Z" fill="#000000"/>
</svg>
