<svg width="32" height="31" viewBox="0 0 32 31" fill="none" xmlns="http://www.w3.org/2000/svg">
<path d="M16.0711 1.38804C23.8025 1.38804 30.0927 7.68044 30.0927 15.4145C30.0927 23.1486 23.8025 29.441 16.0711 29.441C8.33974 29.441 2.04953 23.1486 2.04953 15.4145C2.04953 7.68044 8.33974 1.38804 16.0711 1.38804ZM16.0711 0C7.56102 0 0.663086 6.90144 0.663086 15.4134C0.663086 23.9253 7.56216 30.8267 16.0711 30.8267C24.5801 30.8267 31.4791 23.9253 31.4791 15.4134C31.4791 6.90144 24.5801 0 16.0711 0Z" fill="#000000"/>
<path d="M11.449 13.8699C12.2997 13.8699 12.9894 12.8348 12.9894 11.558C12.9894 10.2812 12.2997 9.24609 11.449 9.24609C10.5983 9.24609 9.90869 10.2812 9.90869 11.558C9.90869 12.8348 10.5983 13.8699 11.449 13.8699Z" fill="#000000"/>
<path d="M20.6932 13.8699C21.5439 13.8699 22.2335 12.8348 22.2335 11.558C22.2335 10.2812 21.5439 9.24609 20.6932 9.24609C19.8425 9.24609 19.1528 10.2812 19.1528 11.558C19.1528 12.8348 19.8425 13.8699 20.6932 13.8699Z" fill="#000000"/>
<path d="M22.2346 22.1441H9.9073C9.59604 22.1441 9.34521 21.8921 9.34521 21.5818C9.34521 21.2716 9.59718 21.0195 9.9073 21.0195H22.2346C22.5459 21.0195 22.7967 21.2716 22.7967 21.5818C22.7967 21.8921 22.5447 22.1441 22.2346 22.1441Z" fill="#000000"/>
</svg>
