<svg width="33" height="31" viewBox="0 0 33 31" fill="none" xmlns="http://www.w3.org/2000/svg">
<path d="M11.5301 13.8699C12.3808 13.8699 13.0704 12.8348 13.0704 11.558C13.0704 10.2812 12.3808 9.24609 11.5301 9.24609C10.6794 9.24609 9.98975 10.2812 9.98975 11.558C9.98975 12.8348 10.6794 13.8699 11.5301 13.8699Z" fill="#000000"/>
<path d="M20.7742 13.8699C21.6249 13.8699 22.3146 12.8348 22.3146 11.558C22.3146 10.2812 21.6249 9.24609 20.7742 9.24609C19.9235 9.24609 19.2339 10.2812 19.2339 11.558C19.2339 12.8348 19.9235 13.8699 20.7742 13.8699Z" fill="#000000"/>
<path d="M22.3157 21.0156H9.98836C9.6771 21.0156 9.42627 21.2677 9.42627 21.5779C9.42627 21.8882 9.67824 22.1402 9.98836 22.1402H22.3157C22.6269 22.1402 22.8778 21.8882 22.8778 21.5779C22.8778 21.2677 22.6258 21.0156 22.3157 21.0156Z" fill="#000000"/>
<path d="M32.1234 9.2487C32.1234 7.46146 29.3015 1.91155 28.98 1.28425L28.4795 0.309084L27.979 1.28425C27.8421 1.55228 27.2493 2.71564 26.6153 4.10027C23.8676 1.5557 20.1917 0 16.1522 0C7.64207 0 0.744141 6.90145 0.744141 15.4134C0.744141 23.9253 7.64321 30.8267 16.1522 30.8267C24.6611 30.8267 31.5602 23.9253 31.5602 15.4134C31.5602 14.1531 31.4051 12.9281 31.1201 11.7556C31.7415 11.1021 32.1234 10.2182 32.1234 9.24756V9.2487ZM28.4795 2.79776C29.6094 5.10395 30.9981 8.26099 30.9981 9.2487C30.9981 10.6379 29.8682 11.7682 28.4795 11.7682C27.0908 11.7682 25.9609 10.6379 25.9609 9.2487C25.9609 8.26099 27.3496 5.10395 28.4795 2.79776ZM16.1522 29.441C8.4208 29.441 2.13058 23.1486 2.13058 15.4145C2.13058 7.68045 8.4208 1.38805 16.1522 1.38805C19.9945 1.38805 23.4799 2.94261 26.0156 5.45524C25.3783 6.95506 24.8344 8.464 24.8344 9.2487C24.8344 11.2583 26.4694 12.8939 28.4783 12.8939C28.9777 12.8939 29.4543 12.7924 29.8887 12.6099C30.0734 13.5166 30.1738 14.453 30.1738 15.4145C30.1738 23.1486 23.8835 29.441 16.1522 29.441Z" fill="#000000"/>
</svg>
