<svg width="32" height="31" viewBox="0 0 32 31" fill="none" xmlns="http://www.w3.org/2000/svg">
<path d="M15.8875 1.38691C23.6189 1.38691 29.9091 7.67931 29.9091 15.4134C29.9091 23.1474 23.6189 29.4398 15.8875 29.4398C8.15614 29.4398 1.86591 23.1474 1.86591 15.4134C1.86591 7.67931 8.15614 1.38691 15.8875 1.38691ZM15.8875 0C7.37741 0 0.479492 6.90146 0.479492 15.4134C0.479492 23.9253 7.37855 30.8267 15.8875 30.8267C24.3965 30.8267 31.2955 23.9253 31.2955 15.4134C31.2955 6.90146 24.3965 0 15.8875 0Z" fill="#979797"/>
<path d="M11.264 13.8699C12.1147 13.8699 12.8043 12.8348 12.8043 11.558C12.8043 10.2812 12.1147 9.24609 11.264 9.24609C10.4133 9.24609 9.72363 10.2812 9.72363 11.558C9.72363 12.8348 10.4133 13.8699 11.264 13.8699Z" fill="#979797"/>
<path d="M20.5096 13.8699C21.3603 13.8699 22.0499 12.8348 22.0499 11.558C22.0499 10.2812 21.3603 9.24609 20.5096 9.24609C19.6589 9.24609 18.9692 10.2812 18.9692 11.558C18.9692 12.8348 19.6589 13.8699 20.5096 13.8699Z" fill="#979797"/>
<path d="M22.0509 23.6852C21.8776 23.6852 21.7055 23.6054 21.596 23.4537C20.2951 21.6687 18.1607 20.6023 15.8873 20.6023C13.6138 20.6023 11.4794 21.6687 10.1785 23.4537C9.99496 23.7046 9.64379 23.7605 9.39296 23.5768C9.14212 23.3932 9.08625 23.0419 9.26982 22.791C10.7817 20.7163 13.2558 19.4766 15.8884 19.4766C18.521 19.4766 20.994 20.7152 22.507 22.791C22.6905 23.0419 22.6347 23.3943 22.3838 23.5768C22.2835 23.6498 22.1684 23.6852 22.0532 23.6852H22.0509Z" fill="#979797"/>
</svg>
