<svg width="212" height="33" viewBox="0 0 212 33" fill="none" xmlns="http://www.w3.org/2000/svg">
<rect x="0.524658" y="0.799805" width="211.449" height="31.6753" rx="4.22338" fill="#FEE500"/>
<g clip-path="url(#clip0_159_1786)">
<path fill-rule="evenodd" clip-rule="evenodd" d="M74.4337 10.7256C70.9348 10.7256 68.0986 12.9168 68.0986 15.6193C68.0986 17.3 69.1956 18.7817 70.866 19.6629L70.1632 22.2304C70.1011 22.4573 70.3605 22.6381 70.5598 22.5066L73.6406 20.4733C73.9006 20.4984 74.1649 20.513 74.4337 20.513C77.9324 20.513 80.7687 18.3219 80.7687 15.6193C80.7687 12.9168 77.9324 10.7256 74.4337 10.7256Z" fill="black"/>
</g>
<path d="M91.4785 12.0462C91.468 15.2665 90.0003 17.4204 87.3079 18.8353L86.6111 18.0539C87.9731 17.431 89.1134 16.4279 89.7575 15.1292L87.0017 15.4249L86.8328 14.4852L90.1165 14.2423C90.2326 13.82 90.3171 13.3871 90.3488 12.9225H87.3079V12.0462H91.4785ZM94.0231 11.0642V14.7386H95.4802V15.636H94.0231V20.4718H92.9356V11.0642H94.0231ZM100.614 12.0462C100.603 15.2665 99.1359 17.4204 96.4435 18.8353L95.7466 18.0539C97.1086 17.431 98.2489 16.4279 98.893 15.1292L96.1373 15.4249L95.9683 14.4852L99.252 14.2423C99.3681 13.82 99.4526 13.3871 99.4843 12.9225H96.4435V12.0462H100.614ZM103.159 11.0642V14.7386H104.616V15.636H103.159V20.4718H102.071V11.0642H103.159ZM113.487 19.2681H104.988V18.4024H108.683V16.7975C106.941 16.6285 105.832 15.636 105.832 14.2318C105.832 12.6797 107.194 11.645 109.232 11.645C111.302 11.645 112.653 12.6797 112.653 14.2318C112.653 15.6466 111.523 16.6391 109.76 16.808V18.4024H113.487V19.2681ZM111.566 14.2423C111.566 13.2393 110.647 12.5319 109.232 12.5319C107.849 12.5319 106.92 13.2393 106.92 14.2423C106.92 15.2348 107.849 15.9106 109.232 15.9106C110.636 15.9106 111.566 15.2348 111.566 14.2423ZM124.573 16.8397H121.669V18.4129H125.396V19.2787H116.897V18.4129H120.592V16.8397H117.984V13.7989H123.221V12.5847H117.953V11.7189H124.298V14.6752H119.072V15.9634H124.573V16.8397ZM134.532 19.0992H126.032V18.2229H134.532V19.0992ZM133.423 12.0779C133.423 14.5696 133.265 16.3329 133.012 17.5682L131.945 17.431C132.177 16.4913 132.336 14.4535 132.336 12.9331H127.014V12.0779H133.423ZM142.907 17.885H141.83V11.0642H142.907V17.885ZM143.129 20.1973H136.688V17.2409H137.765V19.3315H143.129V20.1973ZM140.268 14.0628C140.268 15.4038 139.296 16.3646 137.86 16.3646C136.424 16.3646 135.432 15.4038 135.432 14.0734C135.432 12.7325 136.414 11.7611 137.86 11.7611C139.296 11.7611 140.268 12.7219 140.268 14.0628ZM139.191 14.0628C139.191 13.2393 138.684 12.6586 137.86 12.6586C137.058 12.6586 136.519 13.2604 136.519 14.0628C136.519 14.8336 137.058 15.446 137.86 15.446C138.684 15.446 139.191 14.8336 139.191 14.0628Z" fill="black" fill-opacity="0.85"/>
<defs>
<clipPath id="clip0_159_1786">
<rect width="12.6701" height="12.6701" fill="white" transform="translate(68.0986 10.3027)"/>
</clipPath>
</defs>
</svg>
