<svg width="15" height="20" viewBox="0 0 15 20" fill="none" xmlns="http://www.w3.org/2000/svg">
<path d="M13.125 6.66667H12.1875V4.7619C12.1875 2.13333 10.0875 0 7.5 0C4.9125 0 2.8125 2.13333 2.8125 4.7619H4.6875C4.6875 3.18095 5.94375 1.90476 7.5 1.90476C9.05625 1.90476 10.3125 3.18095 10.3125 4.7619V6.66667H1.875C0.84375 6.66667 0 7.52381 0 8.57143V18.0952C0 19.1429 0.84375 20 1.875 20H13.125C14.1562 20 15 19.1429 15 18.0952V8.57143C15 7.52381 14.1562 6.66667 13.125 6.66667ZM13.125 18.0952H1.875V8.57143H13.125V18.0952ZM7.5 15.2381C8.53125 15.2381 9.375 14.381 9.375 13.3333C9.375 12.2857 8.53125 11.4286 7.5 11.4286C6.46875 11.4286 5.625 12.2857 5.625 13.3333C5.625 14.381 6.46875 15.2381 7.5 15.2381Z" fill="#D9D9D9"/>
</svg>
