<svg xmlns="http://www.w3.org/2000/svg" width="36" height="37" viewBox="0 0 36 37" fill="none">
  <path d="M31.5828 20.2017C31.6595 19.6267 31.6978 19.0325 31.6978 18.4C31.6978 17.7867 31.6595 17.1733 31.5637 16.5983L35.4545 13.57C35.7995 13.3017 35.8953 12.7842 35.6845 12.4008L32.0045 6.0375C31.7745 5.61583 31.2953 5.48167 30.8737 5.61583L26.2928 7.45583C25.3345 6.7275 24.3187 6.11417 23.1878 5.65417L22.4978 0.785833C22.4212 0.325833 22.0378 0 21.5778 0H14.2178C13.7578 0 13.3937 0.325833 13.317 0.785833L12.627 5.65417C11.4962 6.11417 10.4612 6.74667 9.522 7.45583L4.94117 5.61583C4.5195 5.4625 4.04033 5.61583 3.81033 6.0375L0.149501 12.4008C-0.0804993 12.8033 -0.00383288 13.3017 0.3795 13.57L4.27033 16.5983C4.1745 17.1733 4.09783 17.8058 4.09783 18.4C4.09783 18.9942 4.13617 19.6267 4.232 20.2017L0.341167 23.23C-0.00383288 23.4983 -0.0996659 24.0158 0.111167 24.3992L3.79117 30.7625C4.02117 31.1842 4.50033 31.3183 4.922 31.1842L9.50283 29.3442C10.4612 30.0725 11.477 30.6858 12.6078 31.1458L13.2978 36.0142C13.3937 36.4742 13.7578 36.8 14.2178 36.8H21.5778C22.0378 36.8 22.4212 36.4742 22.4787 36.0142L23.1687 31.1458C24.2995 30.6858 25.3345 30.0725 26.2737 29.3442L30.8545 31.1842C31.2762 31.3375 31.7553 31.1842 31.9853 30.7625L35.6653 24.3992C35.8953 23.9775 35.7995 23.4983 35.4353 23.23L31.5828 20.2017ZM17.8978 25.3C14.1028 25.3 10.9978 22.195 10.9978 18.4C10.9978 14.605 14.1028 11.5 17.8978 11.5C21.6928 11.5 24.7978 14.605 24.7978 18.4C24.7978 22.195 21.6928 25.3 17.8978 25.3Z" fill="#28292A"/>
</svg>