<svg width="33" height="33" viewBox="0 0 33 33" fill="none" xmlns="http://www.w3.org/2000/svg">
<path d="M16.408 2.53691C24.0565 2.53691 30.2796 8.7621 30.2796 16.4134C30.2796 24.0646 24.0565 30.2898 16.408 30.2898C8.75953 30.2898 2.53642 24.0646 2.53642 16.4134C2.53642 8.7621 8.75953 2.53691 16.408 2.53691ZM16.408 0.85C7.81502 0.85 0.85 7.81867 0.85 16.4134C0.85 25.0081 7.81617 31.9767 16.408 31.9767C24.9999 31.9767 31.966 25.0081 31.966 16.4134C31.966 7.81866 24.9999 0.85 16.408 0.85Z" fill="#28292A" stroke="#28292A" stroke-width="0.3"/>
<path d="M11.7864 14.8714C12.6371 14.8714 13.3268 13.8363 13.3268 12.5595C13.3268 11.2827 12.6371 10.2476 11.7864 10.2476C10.9357 10.2476 10.2461 11.2827 10.2461 12.5595C10.2461 13.8363 10.9357 14.8714 11.7864 14.8714Z" fill="#28292A"/>
<path d="M21.0286 14.8714C21.8793 14.8714 22.569 13.8363 22.569 12.5595C22.569 11.2827 21.8793 10.2476 21.0286 10.2476C20.1779 10.2476 19.4883 11.2827 19.4883 12.5595C19.4883 13.8363 20.1779 14.8714 21.0286 14.8714Z" fill="#28292A"/>
<path d="M16.4095 27.6246C11.0793 27.6246 6.74219 23.286 6.74219 17.9539V17.5319H26.0769V17.9539C26.0769 23.286 21.7397 27.6246 16.4095 27.6246ZM7.59616 18.3771C7.81735 23.0488 11.6859 26.7806 16.4095 26.7806C21.1332 26.7806 25.0017 23.0488 25.2229 18.3771H7.59616Z" fill="#28292A"/>
</svg>
