<svg width="131" height="131" viewBox="0 0 131 131" fill="none" xmlns="http://www.w3.org/2000/svg">
<rect x="1.5" y="1.5" width="128" height="128" stroke="#D9DADB" stroke-width="3"/>
<mask id="path-2-inside-1_561_110" fill="white">
<path d="M76.9615 55.7778H72.7431C72.5178 55.7778 72.3029 55.6867 72.1511 55.5269L69.9883 53.2508C69.8365 53.091 69.6216 53 69.3963 53H61.4498C61.2245 53 61.0096 53.091 60.8578 53.2508L58.6951 55.527C58.5432 55.6867 58.3284 55.7778 58.1031 55.7778H53.8846C52.2981 55.7778 51 57.0278 51 58.5556V75.2222C51 76.75 52.2981 78 53.8846 78H76.9615C78.5481 78 79.8462 76.75 79.8462 75.2222V58.5556C79.8462 57.0278 78.5481 55.7778 76.9615 55.7778ZM76.9615 74.453C76.9615 74.8778 76.6028 75.2222 76.1603 75.2222H54.6859C54.2434 75.2222 53.8846 74.8778 53.8846 74.453V59.3248C53.8846 58.9 54.2434 58.5556 54.6859 58.5556H59.3723C59.5976 58.5556 59.8125 58.4645 59.9643 58.3047L62.127 56.0286C62.2789 55.8688 62.4938 55.7778 62.719 55.7778H68.1271C68.3524 55.7778 68.5673 55.8688 68.7191 56.0286L70.8819 58.3047C71.0337 58.4645 71.2486 58.5556 71.4738 58.5556H76.1603C76.6028 58.5556 76.9615 58.9 76.9615 59.3248V74.453ZM65.4231 59.9444C61.4423 59.9444 58.2115 63.0556 58.2115 66.8889C58.2115 70.7222 61.4423 73.8333 65.4231 73.8333C69.4038 73.8333 72.6346 70.7222 72.6346 66.8889C72.6346 63.0556 69.4038 59.9444 65.4231 59.9444ZM65.4231 71.0556C63.0433 71.0556 61.0962 69.1806 61.0962 66.8889C61.0962 64.5972 63.0433 62.7222 65.4231 62.7222C67.8029 62.7222 69.75 64.5972 69.75 66.8889C69.75 69.1806 67.8029 71.0556 65.4231 71.0556Z"/>
</mask>
<path d="M76.9615 55.7778H72.7431C72.5178 55.7778 72.3029 55.6867 72.1511 55.5269L69.9883 53.2508C69.8365 53.091 69.6216 53 69.3963 53H61.4498C61.2245 53 61.0096 53.091 60.8578 53.2508L58.6951 55.527C58.5432 55.6867 58.3284 55.7778 58.1031 55.7778H53.8846C52.2981 55.7778 51 57.0278 51 58.5556V75.2222C51 76.75 52.2981 78 53.8846 78H76.9615C78.5481 78 79.8462 76.75 79.8462 75.2222V58.5556C79.8462 57.0278 78.5481 55.7778 76.9615 55.7778ZM76.9615 74.453C76.9615 74.8778 76.6028 75.2222 76.1603 75.2222H54.6859C54.2434 75.2222 53.8846 74.8778 53.8846 74.453V59.3248C53.8846 58.9 54.2434 58.5556 54.6859 58.5556H59.3723C59.5976 58.5556 59.8125 58.4645 59.9643 58.3047L62.127 56.0286C62.2789 55.8688 62.4938 55.7778 62.719 55.7778H68.1271C68.3524 55.7778 68.5673 55.8688 68.7191 56.0286L70.8819 58.3047C71.0337 58.4645 71.2486 58.5556 71.4738 58.5556H76.1603C76.6028 58.5556 76.9615 58.9 76.9615 59.3248V74.453ZM65.4231 59.9444C61.4423 59.9444 58.2115 63.0556 58.2115 66.8889C58.2115 70.7222 61.4423 73.8333 65.4231 73.8333C69.4038 73.8333 72.6346 70.7222 72.6346 66.8889C72.6346 63.0556 69.4038 59.9444 65.4231 59.9444ZM65.4231 71.0556C63.0433 71.0556 61.0962 69.1806 61.0962 66.8889C61.0962 64.5972 63.0433 62.7222 65.4231 62.7222C67.8029 62.7222 69.75 64.5972 69.75 66.8889C69.75 69.1806 67.8029 71.0556 65.4231 71.0556Z" fill="black"/>
<path d="M70.8819 58.3047L76.4582 53.0061L76.4582 53.0061L70.8819 58.3047ZM68.7191 56.0286L63.1427 61.3272L63.1427 61.3272L68.7191 56.0286ZM62.127 56.0286L56.5507 50.73L56.5507 50.73L62.127 56.0286ZM59.9643 58.3047L65.5407 63.6034L65.5407 63.6034L59.9643 58.3047ZM58.6951 55.527L53.1187 50.2283L53.1187 50.2283L58.6951 55.527ZM60.8578 53.2508L66.4342 58.5495L66.4342 58.5495L60.8578 53.2508ZM72.1511 55.5269L66.5747 60.8256L66.5747 60.8256L72.1511 55.5269ZM69.9883 53.2508L75.5647 47.9522V47.9522L69.9883 53.2508ZM76.9615 48.0855H72.7431V63.4701H76.9615V48.0855ZM77.7275 50.2283L75.5647 47.9522L64.412 58.5495L66.5747 60.8256L77.7275 50.2283ZM69.3963 45.3077H61.4498V60.6923H69.3963V45.3077ZM55.2814 47.9522L53.1187 50.2283L64.2714 60.8256L66.4342 58.5495L55.2814 47.9522ZM58.1031 48.0855H53.8846V63.4701H58.1031V48.0855ZM53.8846 48.0855C48.3259 48.0855 43.3077 52.5084 43.3077 58.5556H58.6923C58.6923 61.5472 56.2702 63.4701 53.8846 63.4701V48.0855ZM43.3077 58.5556V75.2222H58.6923V58.5556H43.3077ZM43.3077 75.2222C43.3077 81.2694 48.3259 85.6923 53.8846 85.6923V70.3077C56.2702 70.3077 58.6923 72.2306 58.6923 75.2222H43.3077ZM53.8846 85.6923H76.9615V70.3077H53.8846V85.6923ZM76.9615 85.6923C82.5202 85.6923 87.5385 81.2694 87.5385 75.2222H72.1538C72.1538 72.2306 74.576 70.3077 76.9615 70.3077V85.6923ZM87.5385 75.2222V58.5556H72.1538V75.2222H87.5385ZM87.5385 58.5556C87.5385 52.5084 82.5202 48.0855 76.9615 48.0855V63.4701C74.5759 63.4701 72.1538 61.5472 72.1538 58.5556H87.5385ZM76.1603 67.5299H54.6859V82.9145H76.1603V67.5299ZM61.5769 74.453V59.3248H46.1923V74.453H61.5769ZM54.6859 66.2479H59.3723V50.8632H54.6859V66.2479ZM65.5407 63.6034L67.7034 61.3272L56.5507 50.73L54.3879 53.0061L65.5407 63.6034ZM62.719 63.4701H68.1271V48.0855H62.719V63.4701ZM63.1427 61.3272L65.3055 63.6034L76.4582 53.0061L74.2955 50.73L63.1427 61.3272ZM71.4738 66.2479H76.1603V50.8632H71.4738V66.2479ZM69.2692 59.3248V74.453H84.6538V59.3248H69.2692ZM65.4231 52.2521C57.4702 52.2521 50.5192 58.5362 50.5192 66.8889H65.9038C65.9038 67.1938 65.7636 67.4206 65.6602 67.5201C65.5618 67.6148 65.4634 67.6368 65.4231 67.6368V52.2521ZM50.5192 66.8889C50.5192 75.2416 57.4702 81.5256 65.4231 81.5256V66.141C65.4634 66.141 65.5618 66.1629 65.6602 66.2577C65.7636 66.3572 65.9038 66.5839 65.9038 66.8889H50.5192ZM65.4231 81.5256C73.376 81.5256 80.3269 75.2416 80.3269 66.8889H64.9423C64.9423 66.584 65.0826 66.3572 65.1859 66.2577C65.2843 66.1629 65.3827 66.141 65.4231 66.141V81.5256ZM80.3269 66.8889C80.3269 58.5362 73.376 52.2521 65.4231 52.2521V67.6368C65.3827 67.6368 65.2843 67.6148 65.1859 67.5201C65.0826 67.4206 64.9423 67.1938 64.9423 66.8889H80.3269ZM65.4231 63.3632C67.0154 63.3632 68.7885 64.6612 68.7885 66.8889H53.4038C53.4038 73.6999 59.0711 78.7479 65.4231 78.7479V63.3632ZM68.7885 66.8889C68.7885 69.1166 67.0154 70.4145 65.4231 70.4145V55.0299C59.0711 55.0299 53.4038 60.0778 53.4038 66.8889H68.7885ZM65.4231 70.4145C63.8307 70.4145 62.0577 69.1166 62.0577 66.8889H77.4423C77.4423 60.0778 71.775 55.0299 65.4231 55.0299V70.4145ZM62.0577 66.8889C62.0577 64.6612 63.8307 63.3632 65.4231 63.3632V78.7479C71.775 78.7479 77.4423 73.6999 77.4423 66.8889H62.0577ZM76.1603 66.2479C72.6534 66.2479 69.2692 63.4412 69.2692 59.3248H84.6538C84.6538 54.3587 80.5522 50.8632 76.1603 50.8632V66.2479ZM65.3055 63.6034C66.9454 65.3293 69.1929 66.2479 71.4738 66.2479V50.8632C73.3042 50.8632 75.122 51.5998 76.4582 53.0061L65.3055 63.6034ZM68.1271 63.4701C66.2968 63.4701 64.479 62.7336 63.1427 61.3272L74.2955 50.73C72.6555 49.0041 70.408 48.0855 68.1271 48.0855V63.4701ZM67.7034 61.3272C66.3671 62.7336 64.5493 63.4701 62.719 63.4701V48.0855C60.4382 48.0855 58.1906 49.0041 56.5507 50.73L67.7034 61.3272ZM59.3723 66.2479C61.6532 66.2479 63.9007 65.3293 65.5407 63.6034L54.3879 53.0061C55.7242 51.5998 57.542 50.8632 59.3723 50.8632V66.2479ZM53.1187 50.2283C54.455 48.822 56.2728 48.0855 58.1031 48.0855V63.4701C60.384 63.4701 62.6315 62.5515 64.2714 60.8256L53.1187 50.2283ZM61.5769 59.3248C61.5769 63.4412 58.1927 66.2479 54.6859 66.2479V50.8632C50.294 50.8632 46.1923 54.3587 46.1923 59.3248H61.5769ZM61.4498 45.3077C59.1689 45.3077 56.9214 46.2263 55.2814 47.9522L66.4342 58.5495C65.0979 59.9558 63.2801 60.6923 61.4498 60.6923V45.3077ZM72.7431 48.0855C74.5734 48.0855 76.3912 48.822 77.7275 50.2283L66.5747 60.8256C68.2146 62.5515 70.4622 63.4701 72.7431 63.4701V48.0855ZM76.1603 82.9145C80.5522 82.9145 84.6538 79.4191 84.6538 74.453H69.2692C69.2692 70.3366 72.6534 67.5299 76.1603 67.5299V82.9145ZM54.6859 67.5299C58.1927 67.5299 61.5769 70.3366 61.5769 74.453H46.1923C46.1923 79.4191 50.294 82.9145 54.6859 82.9145V67.5299ZM75.5647 47.9522C73.9248 46.2263 71.6772 45.3077 69.3963 45.3077V60.6923C67.566 60.6923 65.7483 59.9558 64.412 58.5495L75.5647 47.9522Z" fill="#D9DADB" mask="url(#path-2-inside-1_561_110)"/>
</svg>
