<svg xmlns="http://www.w3.org/2000/svg" width="147" height="160" viewBox="0 0 147 160" fill="none">
  <path d="M82.7219 4.86554C79.1567 -1.62185 69.2349 -1.62185 65.6849 4.86554L17.3654 107.06C31.5958 101.529 52.9413 101.839 52.9413 101.839H54.3825L70.221 65.2785C71.996 61.3945 75.8494 61.3945 77.6244 65.2785L98.4541 113.505H57.6595C57.6595 113.505 27.1052 112.52 12.9052 124.369C7.41328 128.942 3.78743 134.121 1.39042 139.102C-3.34292 148.925 4.60665 159.986 16.1973 159.986C22.5842 159.986 28.3188 156.496 30.8676 151.064C33.3708 145.745 39.1812 140.031 52.653 140.031H109.923L114.323 150.149C116.902 156.102 123.122 160 130.04 160C142.253 160 150.46 148.362 145.56 137.977L82.737 4.89369L82.7219 4.86554Z" fill="#0E0E0F"/>
</svg>