<svg width="23" height="25" viewBox="0 0 23 25" fill="none" xmlns="http://www.w3.org/2000/svg">
<path d="M12.9429 0.760241C12.3851 -0.253414 10.8327 -0.253414 10.2772 0.760241L2.71704 16.7281C4.94356 15.8639 8.28333 15.9123 8.28333 15.9123H8.50883L10.987 10.1998C11.2647 9.59289 11.8676 9.59289 12.1453 10.1998L15.4044 17.7351H9.02155C9.02155 17.7351 4.24095 17.5812 2.01918 19.4326C1.1599 20.1472 0.592591 20.9564 0.217549 21.7348C-0.523041 23.2695 0.720769 24.9978 2.53426 24.9978C3.53359 24.9978 4.43084 24.4525 4.82962 23.6038C5.22128 22.7726 6.1304 21.8799 8.23823 21.8799H17.1989L17.8873 23.4608C18.2908 24.3909 19.264 25 20.3464 25C22.2572 25 23.5414 23.1816 22.7747 21.5589L12.9453 0.76464L12.9429 0.760241Z" fill="white"/>
</svg>
