<svg xmlns="http://www.w3.org/2000/svg" width="210" height="100" viewBox="0 0 210 100" fill="none">
  <g filter="url(#filter0_d_25_740)">
    <path d="M177 66H33C31.35 66 30 64.65 30 63V29C30 27.35 31.35 26 33 26H177C178.65 26 180 27.35 180 29V63C180 64.65 178.65 66 177 66Z" fill="#03C75A"/>
    <path d="M64.21 46.42L59.72 40H56V52H59.9V45.58L64.38 52H68.1V40H64.21V46.42Z" fill="white"/>
    <path d="M78.8691 48.2701V40.0401H80.0991V47.1901H80.5591C81.3291 47.1901 82.0291 47.1401 82.6691 47.0301C83.3091 46.9201 83.8291 46.8201 84.2491 46.7301V47.7601C84.0291 47.8301 83.7591 47.8901 83.4691 47.9501C83.1691 48.0101 82.8491 48.0701 82.5091 48.1101C82.1691 48.1501 81.8191 48.2001 81.4691 48.2201C81.1191 48.2501 80.7691 48.2601 80.4291 48.2601H78.8691V48.2701ZM85.0991 39.2201H86.2891V51.5401H85.0991V44.2001H82.3291V43.1501H85.0991V39.2201ZM89.1391 51.8701H87.9391V39.0801H89.1391V51.8701Z" fill="white"/>
    <path d="M97.3183 44.3801C97.3183 45.1301 97.2383 45.7901 97.0683 46.3601C96.8983 46.9301 96.6683 47.4101 96.3783 47.8001C96.0883 48.1801 95.7383 48.4701 95.3283 48.6701C94.9283 48.8701 94.4983 48.9601 94.0383 48.9601C93.5783 48.9601 93.1483 48.8601 92.7583 48.6701C92.3583 48.4701 92.0083 48.1801 91.7083 47.8001C91.4083 47.4201 91.1683 46.9401 90.9983 46.3601C90.8283 45.7801 90.7383 45.1201 90.7383 44.3801C90.7383 43.6301 90.8283 42.9701 90.9983 42.4001C91.1683 41.8301 91.4083 41.3501 91.7083 40.9701C92.0083 40.5901 92.3583 40.3001 92.7583 40.1001C93.1583 39.9001 93.5883 39.8101 94.0383 39.8101C94.4983 39.8101 94.9283 39.9101 95.3283 40.1001C95.7283 40.2901 96.0783 40.5901 96.3783 40.9701C96.6683 41.3501 96.9083 41.8301 97.0683 42.4001C97.2383 42.9801 97.3183 43.6301 97.3183 44.3801ZM96.0883 44.3801C96.0883 43.8601 96.0383 43.3801 95.9483 42.9501C95.8583 42.5201 95.7183 42.1501 95.5483 41.8501C95.3783 41.5401 95.1583 41.3101 94.9083 41.1401C94.6483 40.9701 94.3583 40.8901 94.0283 40.8901C93.6983 40.8901 93.4083 40.9701 93.1483 41.1401C92.8883 41.3101 92.6783 41.5401 92.5083 41.8501C92.3383 42.1601 92.1983 42.5301 92.1083 42.9501C92.0183 43.3801 91.9683 43.8501 91.9683 44.3801C91.9683 44.9001 92.0183 45.3801 92.1083 45.8101C92.1983 46.2401 92.3383 46.6101 92.5083 46.9101C92.6783 47.2201 92.8983 47.4601 93.1483 47.6301C93.4083 47.8001 93.6983 47.8901 94.0283 47.8901C94.3583 47.8901 94.6483 47.8001 94.9083 47.6301C95.1683 47.4601 95.3783 47.2201 95.5483 46.9101C95.7183 46.6001 95.8583 46.2301 95.9483 45.8101C96.0383 45.3801 96.0883 44.9001 96.0883 44.3801ZM99.7283 39.0801H100.928V51.8601H99.7283V39.0801Z" fill="white"/>
    <path d="M108.73 43.5798H111.73V39.0898H112.93V51.8698H111.73V44.6298H108.73V48.3798H103.02L103.03 40.0498H104.26V43.2098H107.54V40.0498H108.73V43.5798ZM107.55 44.2398H104.25V47.3598H107.55V44.2398Z" fill="white"/>
    <path d="M119.53 46.76V42.9H126.32V41.05H119.52V40H127.53V43.89H120.74V45.74H127.95V46.76H124.16V49.04H129.48V50.06H117.58V49.04H122.9V46.76H119.53Z" fill="white"/>
    <path d="M138.358 41.3105H131.388V40.2305H139.588C139.568 40.9205 139.538 41.6405 139.488 42.4005C139.438 43.1505 139.368 43.9105 139.298 44.6605C139.218 45.4205 139.128 46.1605 139.028 46.8805C138.928 47.6005 138.828 48.2705 138.728 48.8905H141.458V49.9105H129.568V48.8905H137.488C137.718 47.7405 137.918 46.5105 138.078 45.2005C138.238 43.8805 138.328 42.5905 138.358 41.3105Z" fill="white"/>
    <path d="M142.02 42.8901C142.02 42.4201 142.1 41.9901 142.27 41.5901C142.44 41.1901 142.67 40.8401 142.97 40.5501C143.27 40.2601 143.62 40.0301 144.02 39.8701C144.42 39.7101 144.86 39.6201 145.33 39.6201C145.8 39.6201 146.25 39.7001 146.66 39.8701C147.07 40.0301 147.42 40.2601 147.72 40.5501C148.02 40.8401 148.25 41.1801 148.42 41.5901C148.59 41.9901 148.67 42.4301 148.67 42.8901C148.67 43.3501 148.59 43.7701 148.42 44.1601C148.25 44.5501 148.02 44.8901 147.72 45.1701C147.42 45.4601 147.07 45.6801 146.66 45.8401C146.25 46.0001 145.81 46.0901 145.33 46.0901C144.85 46.0901 144.42 46.0101 144.02 45.8401C143.62 45.6701 143.27 45.4501 142.97 45.1701C142.67 44.8901 142.44 44.5501 142.27 44.1601C142.1 43.7701 142.02 43.3501 142.02 42.8901ZM143.3 42.8801C143.3 43.1901 143.35 43.4701 143.45 43.7401C143.55 44.0101 143.69 44.2301 143.87 44.4201C144.05 44.6101 144.27 44.7501 144.52 44.8601C144.77 44.9701 145.05 45.0201 145.36 45.0201C145.67 45.0201 145.95 44.9701 146.2 44.8601C146.45 44.7501 146.67 44.6101 146.85 44.4201C147.03 44.2301 147.17 44.0101 147.28 43.7401C147.39 43.4701 147.43 43.1901 147.43 42.8801C147.43 42.5501 147.38 42.2601 147.28 41.9901C147.18 41.7201 147.04 41.4901 146.85 41.2901C146.66 41.0901 146.45 40.9401 146.2 40.8401C145.95 40.7301 145.67 40.6801 145.36 40.6801C145.05 40.6801 144.77 40.7301 144.52 40.8401C144.27 40.9501 144.05 41.1001 143.87 41.2901C143.69 41.4901 143.55 41.7201 143.45 41.9901C143.35 42.2601 143.3 42.5601 143.3 42.8801ZM152.49 51.6101H144.22V47.6501H145.45V50.5601H152.49V51.6101ZM152.19 48.3201H151V39.0801H152.19V48.3201Z" fill="white"/>
  </g>
  <defs>
    <filter id="filter0_d_25_740" x="0" y="0" width="210" height="100" filterUnits="userSpaceOnUse" color-interpolation-filters="sRGB">
      <feFlood flood-opacity="0" result="BackgroundImageFix"/>
      <feColorMatrix in="SourceAlpha" type="matrix" values="0 0 0 0 0 0 0 0 0 0 0 0 0 0 0 0 0 0 127 0" result="hardAlpha"/>
      <feOffset dy="4"/>
      <feGaussianBlur stdDeviation="15"/>
      <feComposite in2="hardAlpha" operator="out"/>
      <feColorMatrix type="matrix" values="0 0 0 0 0 0 0 0 0 0 0 0 0 0 0 0 0 0 0.1 0"/>
      <feBlend mode="normal" in2="BackgroundImageFix" result="effect1_dropShadow_25_740"/>
      <feBlend mode="normal" in="SourceGraphic" in2="effect1_dropShadow_25_740" result="shape"/>
    </filter>
  </defs>
</svg>