<svg width="19" height="26" viewBox="0 0 19 26" fill="none" xmlns="http://www.w3.org/2000/svg">
<path d="M2 1C2 0.447715 1.55228 0 1 0C0.447715 0 0 0.447715 0 1H2ZM18.7071 18.7071C19.0976 18.3166 19.0976 17.6834 18.7071 17.2929L12.3431 10.9289C11.9526 10.5384 11.3195 10.5384 10.9289 10.9289C10.5384 11.3195 10.5384 11.9526 10.9289 12.3431L16.5858 18L10.9289 23.6569C10.5384 24.0474 10.5384 24.6805 10.9289 25.0711C11.3195 25.4616 11.9526 25.4616 12.3431 25.0711L18.7071 18.7071ZM0 1V15H2V1H0ZM4 19H18V17H4V19ZM0 15C0 17.2091 1.79086 19 4 19V17C2.89543 17 2 16.1046 2 15H0Z" fill="#A6A9AF"/>
</svg>
