<svg width="37" height="37" viewBox="0 0 37 37" fill="none" xmlns="http://www.w3.org/2000/svg">
<g clip-path="url(#clip0_25_3511)">
<path d="M17.0325 28.9479C23.57 28.9479 28.8697 23.6482 28.8697 17.1106C28.8697 10.5731 23.57 5.27344 17.0325 5.27344C10.495 5.27344 5.19531 10.5731 5.19531 17.1106C5.19531 23.6482 10.495 28.9479 17.0325 28.9479Z" stroke="#9C9C9C" stroke-width="3.94574" stroke-linecap="round" stroke-linejoin="round"/>
<path d="M33.0049 35.879C33.7754 36.6494 35.0245 36.6494 35.795 35.879C36.5654 35.1085 36.5654 33.8594 35.795 33.0889L33.0049 35.879ZM28.3189 25.6128L26.9238 24.2178L24.1338 27.0078L25.5288 28.4028L28.3189 25.6128ZM35.795 33.0889L28.3189 25.6128L25.5288 28.4028L33.0049 35.879L35.795 33.0889Z" fill="#9C9C9C"/>
</g>
<defs>
<clipPath id="clip0_25_3511">
<rect width="35.5116" height="35.5116" fill="white" transform="translate(0.755859 0.835938)"/>
</clipPath>
</defs>
</svg>
