<svg width="48" height="39" viewBox="0 0 48 39" fill="none" xmlns="http://www.w3.org/2000/svg">
<path d="M33.1442 17.8505C32.6712 20.0654 29.5263 20.0654 29.0455 17.8505C28.809 16.7628 27.1459 17.22 27.3823 18.3077C28.2099 22.1699 33.9797 22.1699 34.8152 18.3077C35.0438 17.22 33.3806 16.7628 33.152 17.8505H33.1442Z" fill="#28292A"/>
<path d="M46.4598 18.2061C45.8214 18.2061 45.1829 18.2061 44.5445 18.2061C43.4331 18.2061 43.4331 19.9322 44.5445 19.9322C45.1829 19.9322 45.8214 19.9322 46.4598 19.9322C47.5712 19.9322 47.5712 18.2061 46.4598 18.2061Z" fill="#28292A"/>
<path d="M29.0777 2.74889C29.0777 2.11044 29.0777 1.47199 29.0777 0.833534C29.0777 -0.277845 27.3516 -0.277845 27.3516 0.833534C27.3516 1.47199 27.3516 2.11044 27.3516 2.74889C27.3516 3.86027 29.0777 3.86027 29.0777 2.74889Z" fill="#28292A"/>
<path d="M40.367 8.1402C40.8163 7.69092 41.2734 7.23376 41.7227 6.78448C42.5109 5.99627 41.2892 4.77454 40.501 5.56275C40.0517 6.01203 39.5946 6.46919 39.1453 6.91847C38.3571 7.70669 39.5788 8.92842 40.367 8.1402Z" fill="#28292A"/>
<path d="M14.7 6.78449C15.1492 7.23377 15.6064 7.69093 16.0557 8.14021C16.8439 8.92842 18.0656 7.70669 17.2774 6.91848C16.8281 6.4692 16.371 6.01204 15.9217 5.56276C15.1335 4.77455 13.9117 5.99627 14.7 6.78449Z" fill="#28292A"/>
<path d="M39.1453 31.2269C39.5946 31.6761 40.0517 32.1333 40.501 32.5826C41.2892 33.3708 42.5109 32.1491 41.7227 31.3609C41.2734 30.9116 40.8163 30.4544 40.367 30.0051C39.5788 29.2169 38.3571 30.4386 39.1453 31.2269Z" fill="#28292A"/>
<path d="M41.657 19.0722C41.657 11.6551 35.6272 5.62525 28.2101 5.62525C22.2276 5.62525 17.1515 9.55843 15.4095 14.9656C11.8705 15.738 8.9935 18.2997 7.83483 21.6811C3.45237 22.091 0 25.7325 0 30.2254C0 34.9862 3.86224 38.8484 8.62304 38.8484H27.6741C31.4891 38.8484 34.571 35.7586 34.571 31.9515C34.571 31.6126 34.5237 31.2816 34.4764 30.9584C38.7406 28.7041 41.657 24.2192 41.657 19.0722ZM27.6741 36.933H8.62304C4.92633 36.933 1.91535 33.9221 1.91535 30.2254C1.91535 26.7651 4.53221 23.9118 8.00035 23.5965L9.23785 23.4783L9.63984 22.3038C10.8143 18.9066 14.0144 16.6208 17.6008 16.6208C22.2512 16.6208 26.0268 20.4042 26.0268 25.0468V26.8912L27.8633 26.9937C30.5432 27.104 32.6399 29.2795 32.6399 31.9437C32.6399 34.6078 30.4092 36.9252 27.6584 36.9252L27.6741 36.933ZM33.9168 29.0746C32.8606 26.8045 30.6063 25.1966 27.9579 25.0862C27.9579 25.0783 27.9579 25.0704 27.9579 25.0547C27.9579 19.3401 23.3232 14.7055 17.6087 14.7055C17.585 14.7055 17.5693 14.7055 17.5456 14.7055C19.2718 10.5122 23.3941 7.54061 28.2101 7.54061C34.5631 7.54061 39.7338 12.7113 39.7338 19.0643C39.7338 23.3443 37.3849 27.0725 33.9168 29.0667V29.0746Z" fill="#28292A"/>
<path d="M27.9108 12.342C27.3827 12.342 26.9492 12.7755 26.9492 13.3036V15.2268C26.9492 15.7549 27.3827 16.1885 27.9108 16.1885C28.4389 16.1885 28.8725 15.7549 28.8725 15.2268V13.3036C28.8725 12.7755 28.4389 12.342 27.9108 12.342Z" fill="#28292A"/>
<path d="M34.2741 12.3418C33.746 12.3418 33.3125 12.7753 33.3125 13.3034V15.2267C33.3125 15.7548 33.746 16.1883 34.2741 16.1883C34.8022 16.1883 35.2357 15.7548 35.2357 15.2267V13.3034C35.2357 12.7753 34.8022 12.3418 34.2741 12.3418Z" fill="#28292A"/>
<path d="M12.8483 24.196C12.3202 24.196 11.8867 24.6295 11.8867 25.1576V27.0808C11.8867 27.6089 12.3202 28.0424 12.8483 28.0424C13.3764 28.0424 13.81 27.6089 13.81 27.0808V25.1576C13.81 24.6295 13.3764 24.196 12.8483 24.196Z" fill="#28292A"/>
<path d="M22.0951 25.1574C22.0951 24.6263 21.6646 24.1958 21.1335 24.1958C20.6024 24.1958 20.1719 24.6263 20.1719 25.1574V27.0728C20.1719 27.6039 20.6024 28.0344 21.1335 28.0344C21.6646 28.0344 22.0951 27.6039 22.0951 27.0728V25.1574Z" fill="#28292A"/>
<path d="M18.649 31.7004C18.649 32.4492 18.042 33.0561 17.2932 33.0561C16.5444 33.0561 15.9375 32.4492 15.9375 31.7004C15.9375 30.9516 16.5444 30.3446 17.2932 30.3446C18.042 30.3446 18.649 30.9516 18.649 31.7004Z" fill="#28292A"/>
</svg>
